<?xml version="1.0" encoding="UTF-8" standalone="no"?>
<svg
   xmlns:dc="http://purl.org/dc/elements/1.1/"
   xmlns:cc="http://creativecommons.org/ns#"
   xmlns:rdf="http://www.w3.org/1999/02/22-rdf-syntax-ns#"
   xmlns:svg="http://www.w3.org/2000/svg"
   xmlns="http://www.w3.org/2000/svg"
   xmlns:sodipodi="http://sodipodi.sourceforge.net/DTD/sodipodi-0.dtd"
   xmlns:inkscape="http://www.inkscape.org/namespaces/inkscape"
   xml:space="preserve"
   enable-background="new 0 0 595.28 841.89"
   viewBox="0 0 399.99998 399.99999"
   height="400"
   width="400"
   y="0px"
   x="0px"
   id="Layer_1"
   version="1.1"
   inkscape:version="0.91 r13725"
   sodipodi:docname="Biocaching_logo.svg"><sodipodi:namedview
   pagecolor="#ffffff"
   bordercolor="#666666"
   borderopacity="1"
   objecttolerance="10"
   gridtolerance="10"
   guidetolerance="10"
   inkscape:pageopacity="0"
   inkscape:pageshadow="2"
   inkscape:window-width="1146"
   inkscape:window-height="655"
   id="namedview4190"
   showgrid="false"
   inkscape:zoom="0.59"
   inkscape:cx="200"
   inkscape:cy="200"
   inkscape:window-x="0"
   inkscape:window-y="0"
   inkscape:window-maximized="0"
   inkscape:current-layer="Layer_1" /><metadata
   id="metadata47"><rdf:RDF><cc:Work
       rdf:about=""><dc:format>image/svg+xml</dc:format><dc:type
         rdf:resource="http://purl.org/dc/dcmitype/StillImage" /><dc:title /></cc:Work></rdf:RDF></metadata><defs
   id="defs45" />
<g
   transform="matrix(1.1408143,0,0,1.1408143,-127.9743,-294.15156)"
   id="g3">
	<g
   style="fill:#96b41f;fill-opacity:0.94117647"
   id="g5">
		<g
   style="fill:#96b41f;fill-opacity:0.94117647"
   id="g7">
			<g
   style="fill:#96b41f;fill-opacity:0.94117647"
   id="g9">
				<path
   style="fill:#96b41f;fill-opacity:0.94117647"
   id="path11"
   d="m 293.966,431.769 -14.93,0 0,-23.897 16.043,0 c 4.143,0 7.26,1.105 9.27,3.284 1.979,2.152 2.98,5.236 2.98,9.167 0,3.738 -1.201,6.627 -3.57,8.586 -2.287,1.897 -5.584,2.86 -9.793,2.86 z m -12.244,-2.686 12.244,0 c 3.566,0 6.285,-0.755 8.08,-2.243 1.748,-1.445 2.598,-3.578 2.598,-6.518 0,-3.236 -0.764,-5.709 -2.27,-7.348 -1.48,-1.604 -3.934,-2.417 -7.295,-2.417 l -13.357,0 0,18.526 z"
   inkscape:connector-curvature="0" />
			</g>
			<g
   style="fill:#96b41f;fill-opacity:0.94117647"
   id="g13">
				<path
   style="fill:#96b41f;fill-opacity:0.94117647"
   id="path15"
   d="m 289.247,470.66 c -17.548,0 -34.045,-6.833 -46.451,-19.24 -12.407,-12.406 -19.239,-28.902 -19.239,-46.449 0,-17.546 6.832,-34.042 19.239,-46.449 12.406,-12.407 28.903,-19.24 46.451,-19.24 17.543,0 34.039,6.833 46.445,19.24 12.406,12.407 19.24,28.903 19.24,46.449 0,17.547 -6.834,34.042 -19.24,46.449 -12.406,12.407 -28.902,19.24 -46.445,19.24 z m 0,-128.692 c -34.742,0 -63.006,28.263 -63.006,63.003 0,34.74 28.264,63.004 63.006,63.004 34.738,0 63,-28.264 63,-63.004 0,-34.74 -28.262,-63.003 -63,-63.003 z m 4.719,101.115 -37.506,0 0,-11.291 7.828,-1.515 0,-50.564 -7.828,-1.514 0,-11.341 34.023,0 c 8.889,0 15.961,1.78 21.018,5.291 5.209,3.617 7.85,9.068 7.85,16.205 0,3.656 -0.986,6.975 -2.93,9.865 -1.344,1.997 -3.117,3.664 -5.297,4.978 3.098,1.209 5.561,3.082 7.346,5.592 2.361,3.315 3.559,7.196 3.559,11.534 0,7.441 -2.52,13.177 -7.488,17.047 -4.868,3.79 -11.79,5.713 -20.575,5.713 z m -34.82,-2.686 34.82,0 c 8.172,0 14.541,-1.731 18.924,-5.146 4.342,-3.382 6.453,-8.265 6.453,-14.929 0,-3.769 -1.031,-7.125 -3.061,-9.977 -1.994,-2.802 -5.059,-4.662 -9.111,-5.527 l -4.367,-0.934 4.158,-1.629 c 3.16,-1.239 5.594,-3.101 7.232,-5.536 1.637,-2.438 2.471,-5.253 2.471,-8.366 0,-6.292 -2.191,-10.871 -6.695,-13.999 -4.6,-3.192 -11.154,-4.811 -19.486,-4.811 l -31.338,0 0,6.439 7.828,1.514 0,54.996 -7.828,1.515 0,6.39 z"
   inkscape:connector-curvature="0" />
			</g>
			<g
   style="fill:#96b41f;fill-opacity:0.94117647"
   id="g17">
				<path
   style="fill:#96b41f;fill-opacity:0.94117647"
   id="path19"
   d="m 290.987,400.354 -11.951,0 0,-22.13 11.447,0 c 4.521,0 8.012,0.907 10.379,2.695 2.48,1.875 3.74,4.768 3.74,8.598 0,3.524 -1.248,6.263 -3.711,8.139 -2.351,1.79 -5.683,2.698 -9.904,2.698 z m -9.265,-2.686 9.266,0 c 3.619,0 6.404,-0.723 8.277,-2.15 1.783,-1.359 2.652,-3.323 2.652,-6.002 0,-2.984 -0.875,-5.095 -2.674,-6.455 -1.889,-1.429 -4.836,-2.153 -8.76,-2.153 l -8.762,0 0,16.76 z"
   inkscape:connector-curvature="0" />
			</g>
		</g>
	</g>
	<g
   style="fill:#96b41f;fill-opacity:0.94117647"
   id="g21">
		<path
   style="fill:#96b41f;fill-opacity:0.94117647"
   id="path23"
   d="m 174.336,496.346 c 3.437,0 6.112,0.724 8.028,2.17 1.916,1.445 2.873,3.621 2.873,6.529 0,1.695 -0.481,3.172 -1.442,4.428 -0.962,1.257 -2.268,2.127 -3.918,2.611 2.014,0.363 3.649,1.311 4.906,2.84 1.256,1.529 1.885,3.293 1.885,5.291 0,2.952 -0.958,5.224 -2.873,6.812 -1.916,1.59 -4.478,2.385 -7.688,2.385 l -15.125,0 0,-1.998 3.702,-0.295 0,-28.457 -3.702,-0.295 0,-2.021 3.702,0 9.652,0 z m -6.95,14.83 7.608,0 c 2.392,0 4.243,-0.525 5.552,-1.578 1.309,-1.053 1.965,-2.6 1.965,-4.645 0,-2.089 -0.697,-3.66 -2.089,-4.712 -1.394,-1.052 -3.422,-1.579 -6.086,-1.579 l -6.95,0 0,12.514 z m 0,2.294 0,13.649 8.721,0 c 2.437,0 4.353,-0.602 5.746,-1.806 1.393,-1.204 2.089,-2.888 2.089,-5.054 0,-1.982 -0.632,-3.61 -1.896,-4.883 -1.264,-1.271 -3.1,-1.907 -5.507,-1.907 l -9.153,0 z"
   inkscape:connector-curvature="0" />
		<path
   style="fill:#96b41f;fill-opacity:0.94117647"
   id="path25"
   d="m 192.809,527.414 3.702,-0.295 0,-19.963 -3.702,-0.295 0,-2.021 6.405,0 0,22.279 3.702,0.295 0,1.998 -10.106,0 0,-1.998 z m 6.405,-29.614 -2.703,0 0,-3.815 2.703,0 0,3.815 z"
   inkscape:connector-curvature="0" />
		<path
   style="fill:#96b41f;fill-opacity:0.94117647"
   id="path27"
   d="m 208.876,516.763 c 0,-3.618 0.991,-6.586 2.975,-8.902 1.984,-2.316 4.61,-3.475 7.881,-3.475 3.285,0 5.919,1.158 7.903,3.475 1.983,2.316 2.975,5.284 2.975,8.902 l 0,0.749 c 0,3.635 -0.988,6.605 -2.964,8.914 -1.976,2.31 -4.599,3.464 -7.869,3.464 -3.301,0 -5.943,-1.154 -7.926,-3.464 -1.983,-2.309 -2.975,-5.279 -2.975,-8.914 l 0,-0.749 z m 2.725,0.749 c 0,2.848 0.719,5.239 2.157,7.178 1.438,1.938 3.444,2.906 6.019,2.906 2.528,0 4.512,-0.969 5.95,-2.906 1.438,-1.938 2.157,-4.33 2.157,-7.178 l 0,-0.749 c 0,-2.801 -0.723,-5.178 -2.169,-7.131 -1.446,-1.953 -3.44,-2.93 -5.984,-2.93 -2.544,0 -4.535,0.977 -5.973,2.93 -1.438,1.953 -2.157,4.33 -2.157,7.131 l 0,0.749 z"
   inkscape:connector-curvature="0" />
		<path
   style="fill:#96b41f;fill-opacity:0.94117647"
   id="path29"
   d="m 246.926,527.596 c 1.801,0 3.391,-0.515 4.769,-1.545 1.377,-1.029 2.066,-2.459 2.066,-4.291 l 2.408,0 0.045,0.136 c 0.075,2.271 -0.829,4.171 -2.714,5.7 -1.885,1.529 -4.077,2.294 -6.575,2.294 -3.331,0 -5.913,-1.147 -7.745,-3.44 -1.832,-2.294 -2.748,-5.242 -2.748,-8.846 l 0,-0.954 c 0,-3.573 0.916,-6.511 2.748,-8.812 1.832,-2.301 4.406,-3.452 7.722,-3.452 1.893,0 3.626,0.356 5.201,1.067 1.575,0.712 2.854,1.681 3.838,2.906 l 0.114,5.36 -2.316,0 -0.432,-4.36 c -0.727,-0.818 -1.631,-1.465 -2.714,-1.941 -1.083,-0.478 -2.313,-0.716 -3.69,-0.716 -2.634,0 -4.584,0.942 -5.848,2.827 -1.265,1.885 -1.896,4.258 -1.896,7.12 l 0,0.954 c 0,2.906 0.628,5.299 1.885,7.176 1.256,1.878 3.217,2.817 5.882,2.817 z"
   inkscape:connector-curvature="0" />
		<path
   style="fill:#96b41f;fill-opacity:0.94117647"
   id="path31"
   d="m 279.639,529.412 c -0.182,-0.832 -0.311,-1.551 -0.386,-2.157 -0.076,-0.604 -0.114,-1.218 -0.114,-1.839 -0.908,1.287 -2.12,2.354 -3.634,3.201 -1.514,0.848 -3.217,1.272 -5.11,1.272 -2.407,0 -4.27,-0.62 -5.586,-1.862 -1.317,-1.241 -1.976,-2.922 -1.976,-5.042 0,-2.271 0.977,-4.072 2.93,-5.405 1.953,-1.332 4.603,-1.998 7.949,-1.998 l 5.428,0 0,-3.248 c 0,-1.756 -0.564,-3.134 -1.692,-4.133 -1.128,-1 -2.707,-1.499 -4.735,-1.499 -1.362,0 -2.608,0.186 -3.736,0.557 -1.128,0.371 -2.07,0.874 -2.827,1.511 l -0.227,3.293 -2.249,0 0.023,-4.725 c 1.135,-0.878 2.494,-1.59 4.076,-2.135 1.582,-0.545 3.267,-0.817 5.053,-0.817 2.71,0 4.89,0.688 6.541,2.066 1.65,1.378 2.476,3.354 2.476,5.928 l 0,12.082 c 0,0.499 0.011,0.98 0.034,1.442 0.022,0.461 0.071,0.912 0.147,1.351 l 2.453,0.159 0,1.998 -4.838,0 z m -8.948,-1.93 c 1.968,0 3.702,-0.455 5.201,-1.363 1.499,-0.908 2.581,-2.081 3.248,-3.52 l 0,-4.928 -5.473,0 c -2.468,0 -4.44,0.51 -5.916,1.532 -1.476,1.022 -2.214,2.313 -2.214,3.872 0,1.317 0.458,2.381 1.374,3.191 0.915,0.811 2.175,1.216 3.78,1.216 z"
   inkscape:connector-curvature="0" />
		<path
   style="fill:#96b41f;fill-opacity:0.94117647"
   id="path33"
   d="m 300.225,527.596 c 1.802,0 3.392,-0.515 4.769,-1.545 1.378,-1.029 2.067,-2.459 2.067,-4.291 l 2.407,0 0.045,0.136 c 0.076,2.271 -0.829,4.171 -2.714,5.7 -1.885,1.529 -4.076,2.294 -6.574,2.294 -3.331,0 -5.913,-1.147 -7.744,-3.44 -1.832,-2.294 -2.748,-5.242 -2.748,-8.846 l 0,-0.954 c 0,-3.573 0.916,-6.511 2.748,-8.812 1.831,-2.301 4.405,-3.452 7.722,-3.452 1.892,0 3.625,0.356 5.2,1.067 1.574,0.712 2.854,1.681 3.838,2.906 l 0.114,5.36 -2.317,0 -0.431,-4.36 c -0.728,-0.818 -1.632,-1.465 -2.714,-1.941 -1.083,-0.478 -2.313,-0.716 -3.69,-0.716 -2.635,0 -4.584,0.942 -5.849,2.827 -1.264,1.885 -1.896,4.258 -1.896,7.12 l 0,0.954 c 0,2.906 0.629,5.299 1.886,7.176 1.255,1.878 3.216,2.817 5.881,2.817 z"
   inkscape:connector-curvature="0" />
		<path
   style="fill:#96b41f;fill-opacity:0.94117647"
   id="path35"
   d="m 315.178,496.006 0,-2.021 6.404,0 0,15.057 c 0.817,-1.469 1.907,-2.611 3.271,-3.429 1.362,-0.817 2.952,-1.227 4.769,-1.227 2.589,0 4.576,0.803 5.962,2.407 1.385,1.605 2.078,4.096 2.078,7.472 l 0,12.854 3.701,0.295 0,1.998 -10.129,0 0,-1.998 3.702,-0.295 0,-12.9 c 0,-2.664 -0.526,-4.576 -1.578,-5.734 -1.053,-1.158 -2.502,-1.736 -4.35,-1.736 -1.862,0 -3.418,0.488 -4.667,1.465 -1.249,0.977 -2.168,2.274 -2.759,3.895 l 0,15.012 3.702,0.295 0,1.998 -10.106,0 0,-1.998 3.701,-0.295 0,-30.818 -3.701,-0.297 z"
   inkscape:connector-curvature="0" />
		<path
   style="fill:#96b41f;fill-opacity:0.94117647"
   id="path37"
   d="m 346.664,527.414 3.701,-0.295 0,-19.963 -3.701,-0.295 0,-2.021 6.404,0 0,22.279 3.701,0.295 0,1.998 -10.105,0 0,-1.998 z m 6.404,-29.614 -2.703,0 0,-3.815 2.703,0 0,3.815 z"
   inkscape:connector-curvature="0" />
		<path
   style="fill:#96b41f;fill-opacity:0.94117647"
   id="path39"
   d="m 362.23,527.414 3.702,-0.295 0,-19.963 -3.702,-0.295 0,-2.021 6.109,0 0.25,4.293 c 0.787,-1.515 1.851,-2.684 3.19,-3.51 1.34,-0.824 2.926,-1.237 4.758,-1.237 2.665,0 4.693,0.813 6.087,2.441 1.393,1.628 2.089,4.167 2.089,7.619 l 0,12.673 3.702,0.295 0,1.998 -10.129,0 0,-1.998 3.701,-0.295 0,-12.65 c 0,-2.816 -0.525,-4.807 -1.578,-5.973 -1.053,-1.166 -2.547,-1.748 -4.485,-1.748 -1.907,0 -3.463,0.503 -4.667,1.51 -1.203,1.008 -2.07,2.344 -2.601,4.008 l 0,14.854 3.702,0.295 0,1.998 -10.128,0 0,-1.999 z"
   inkscape:connector-curvature="0" />
		<path
   style="fill:#96b41f;fill-opacity:0.94117647"
   id="path41"
   d="m 393.968,517.33 c 0,-3.92 0.837,-7.059 2.51,-9.413 1.673,-2.354 3.993,-3.531 6.961,-3.531 1.74,0 3.251,0.382 4.53,1.147 1.279,0.764 2.335,1.843 3.168,3.236 l 0.318,-3.93 2.294,0 0,24.255 c 0,3.164 -0.856,5.662 -2.566,7.494 -1.711,1.832 -4.096,2.748 -7.154,2.748 -1.181,0 -2.441,-0.144 -3.781,-0.431 -1.34,-0.289 -2.51,-0.682 -3.509,-1.182 l 0.727,-2.294 c 0.984,0.47 2.018,0.833 3.101,1.091 1.082,0.257 2.222,0.386 3.418,0.386 2.331,0 4.088,-0.689 5.269,-2.067 1.181,-1.377 1.771,-3.293 1.771,-5.745 l 0,-3.111 c -0.833,1.257 -1.885,2.222 -3.157,2.896 -1.271,0.674 -2.763,1.011 -4.474,1.011 -2.952,0 -5.262,-1.098 -6.927,-3.293 -1.665,-2.195 -2.498,-5.125 -2.498,-8.789 l 0,-0.478 z m 2.725,0.478 c 0,2.952 0.602,5.311 1.806,7.074 1.203,1.765 3.001,2.646 5.394,2.646 1.771,0 3.243,-0.4 4.417,-1.203 1.173,-0.803 2.078,-1.908 2.714,-3.316 l 0,-11.4 c -0.605,-1.438 -1.477,-2.607 -2.611,-3.509 -1.136,-0.9 -2.627,-1.351 -4.475,-1.351 -2.393,0 -4.197,0.984 -5.416,2.951 -1.219,1.969 -1.828,4.513 -1.828,7.631 l 0,0.477 z"
   inkscape:connector-curvature="0" />
	</g>
</g>
</svg>